HIERARCHY
ROOT Hips
{
	OFFSET 0.000000 0.000000 0.000000
	CHANNELS 6 Xposition Yposition Zposition Yrotation Xrotation Zrotation
	JOINT Chest
	{
		OFFSET 0.000000 -0.009281 11.569106
		CHANNELS 3 Yrotation Xrotation Zrotation
		JOINT Chest2
		{
			OFFSET -0.000000 0.016865 9.269641
			CHANNELS 3 Yrotation Xrotation Zrotation
			JOINT Chest3
			{
				OFFSET -0.000000 0.000001 8.374491
				CHANNELS 3 Yrotation Xrotation Zrotation
				JOINT Chest4
				{
					OFFSET -0.000000 0.000001 8.374493
					CHANNELS 3 Yrotation Xrotation Zrotation
					JOINT Neck
					{
						OFFSET -0.000000 0.000002 12.152554
						CHANNELS 3 Yrotation Xrotation Zrotation
						JOINT Head
						{
							OFFSET -0.000000 0.040101 7.802319
							CHANNELS 3 Yrotation Xrotation Zrotation
							End Site
							{
								OFFSET -0.000000 0.020947 14.853096
							}
						}
					}
					JOINT RightCollar
					{
						OFFSET 2.894404 0.000001 6.791374
						CHANNELS 3 Yrotation Xrotation Zrotation
						JOINT RightShoulder
						{
							OFFSET 13.574684 0.000001 0.000000
							CHANNELS 3 Yrotation Xrotation Zrotation
							JOINT RightElbow
							{
								OFFSET 23.923903 0.000002 0.000000
								CHANNELS 3 Yrotation Xrotation Zrotation
								JOINT RightWrist
								{
									OFFSET 19.846718 0.012767 0.000000
									CHANNELS 3 Yrotation Xrotation Zrotation
									End Site
									{
										OFFSET 14.973145 0.000001 0.000000
									}
								}
							}
						}
					}
					JOINT LeftCollar
					{
						OFFSET -2.894404 0.000001 6.791374
						CHANNELS 3 Yrotation Xrotation Zrotation
						JOINT LeftShoulder
						{
							OFFSET -13.574684 -0.000001 0.000000
							CHANNELS 3 Yrotation Xrotation Zrotation
							JOINT LeftElbow
							{
								OFFSET -23.923903 -0.000002 0.000000
								CHANNELS 3 Yrotation Xrotation Zrotation
								JOINT LeftWrist
								{
									OFFSET -19.846718 0.012763 0.000000
									CHANNELS 3 Yrotation Xrotation Zrotation
									End Site
									{
										OFFSET -14.973145 -0.000001 0.000000
									}
								}
							}
						}
					}
				}
			}
		}
	}
	JOINT RightHip
	{
		OFFSET 9.469263 0.004643 0.045487
		CHANNELS 3 Yrotation Xrotation Zrotation
		JOINT RightKnee
		{
			OFFSET 0.000000 0.002661 -40.478676
			CHANNELS 3 Yrotation Xrotation Zrotation
			JOINT RightAnkle
			{
				OFFSET 0.000000 0.049106 -35.224068
				CHANNELS 3 Yrotation Xrotation Zrotation
				JOINT RightToe
				{
					OFFSET -0.000001 12.539529 -6.151390
					CHANNELS 3 Yrotation Xrotation Zrotation
					End Site
					{
						OFFSET -0.000001 5.044994 -1.291870
					}
				}
			}
		}
	}
	JOINT LeftHip
	{
		OFFSET -9.469263 0.004641 0.045487
		CHANNELS 3 Yrotation Xrotation Zrotation
		JOINT LeftKnee
		{
			OFFSET 0.000000 0.002661 -40.478676
			CHANNELS 3 Yrotation Xrotation Zrotation
			JOINT LeftAnkle
			{
				OFFSET 0.000000 0.049106 -35.224068
				CHANNELS 3 Yrotation Xrotation Zrotation
				JOINT LeftToe
				{
					OFFSET -0.000001 12.539529 -6.151390
					CHANNELS 3 Yrotation Xrotation Zrotation
					End Site
					{
						OFFSET -0.000001 5.044994 -1.291870
					}
				}
			}
		}
	}
}
MOTION
Frames: 12
Frame Time: 0.016667
9.646974 7.435158 83.276024 -8.993274 -0.282260 -103.524139 7.189589 -3.451296 0.175197 3.195908 -1.523819 0.083857 3.195908 -1.523818 0.083857 2.396999 -1.142462 0.070861 -7.462101 -23.121606 18.408552 -8.663132 -6.807324 31.163373 4.241990 0.268201 2.313215 51.900811 24.116595 54.559910 -5.496127 -10.729116 125.474304 -53.301212 19.274845 43.648273 -10.587735 -2.066039 -8.769393 -59.640829 -0.742893 -45.609725 -29.731694 -36.719797 -90.403195 53.560250 24.724568 -24.266118 -4.113160 -10.129317 -2.546128 1.702952 -3.630415 -2.231042 0.139456 4.773949 -3.917854 0.044673 0.045466 0.022131 -4.294658 -9.327497 -0.707426 0.352404 -2.894776 1.807778 -0.368021 2.759635 -0.857509 -0.146002 -0.117642 -0.012789 
9.624850 7.466960 83.274666 -8.994018 -0.313368 -103.605685 7.223960 -3.451881 0.141069 3.210339 -1.524820 0.071365 3.210337 -1.524821 0.071365 2.407788 -1.143278 0.061534 -7.472553 -23.129490 18.428504 -8.678432 -6.821343 31.196360 4.283871 0.206564 2.267029 52.034399 23.568485 53.886627 -5.678551 -10.669100 125.440345 -53.490982 19.641792 44.075713 -10.617179 -2.078180 -8.690901 -59.338867 -1.053308 -45.331061 -29.157155 -37.346559 -90.153866 53.395144 24.466614 -25.882665 -4.119436 -10.086556 -2.498682 1.701597 -3.652065 -2.229186 0.155863 4.741959 -3.870374 0.041464 0.044575 0.022511 -4.306699 -9.311755 -0.735986 0.360747 -2.915358 1.761530 -0.305183 2.768869 -0.729702 -0.150921 -0.110997 -0.013239 
9.601965 7.493815 83.273933 -8.998173 -0.345067 -103.690884 7.263127 -3.454788 0.099586 3.226416 -1.526824 0.055237 3.226415 -1.526823 0.055238 2.419807 -1.144864 0.049489 -7.490172 -23.138992 18.453600 -8.705514 -6.837372 31.236644 4.327712 0.154280 2.242897 52.159030 23.067823 53.218109 -5.840891 -10.699983 125.402874 -53.762618 20.106818 44.464210 -10.669148 -2.066251 -8.599751 -59.070324 -1.381469 -45.016967 -28.625997 -37.891386 -89.825730 53.086050 24.163285 -27.487367 -4.120873 -10.041975 -2.441278 1.697445 -3.683965 -2.231027 0.169569 4.714532 -3.813449 0.039023 0.044549 0.022755 -4.311264 -9.301341 -0.740342 0.363667 -2.933172 1.717227 -0.250994 2.776648 -0.624880 -0.150121 -0.104673 -0.012484 
9.580199 7.517728 83.272972 -9.012039 -0.376840 -103.782040 7.300659 -3.452676 0.061359 3.241925 -1.526447 0.039982 3.241925 -1.526447 0.039982 2.431401 -1.144662 0.038084 -7.508330 -23.154210 18.477591 -8.734894 -6.863667 31.274685 4.377947 0.108881 2.207930 52.236976 22.574636 52.555089 -5.990985 -10.757174 125.352631 -54.065486 20.568802 44.799627 -10.705650 -2.126783 -8.525817 -58.830448 -1.640090 -44.731237 -28.056274 -38.408227 -89.532278 52.772849 23.912532 -29.086501 -4.122318 -10.004646 -2.384103 1.696085 -3.722826 -2.223434 0.177119 4.694131 -3.796392 0.036630 0.042666 0.022851 -4.314837 -9.302598 -0.738179 0.360650 -2.949457 1.697736 -0.198610 2.786159 -0.545125 -0.147685 -0.099766 -0.012621 
9.558602 7.540879 83.271591 -9.030055 -0.407450 -103.874753 7.334492 -3.457043 0.028569 3.256251 -1.529175 0.027052 3.256249 -1.529175 0.027051 2.442109 -1.146776 0.028438 -7.523517 -23.160181 18.495457 -8.758712 -6.873111 31.302637 4.421386 0.107913 2.177160 52.283602 22.047864 51.860585 -6.130073 -10.761088 125.306186 -54.326198 20.916469 45.144897 -10.757164 -2.154989 -8.466630 -58.566953 -1.862858 -44.447681 -27.453573 -38.785332 -89.202312 52.514347 23.628073 -30.727481 -4.131481 -9.965862 -2.327263 1.700447 -3.772410 -2.205032 0.183791 4.680521 -3.773436 0.034284 0.039657 0.023072 -4.322804 -9.306496 -0.742092 0.361731 -2.968603 1.703017 -0.151589 2.797863 -0.475880 -0.144377 -0.095967 -0.013682 
9.536477 7.564011 83.270584 -9.048605 -0.436097 -103.966899 7.357153 -3.459663 0.005880 3.265990 -1.531159 0.018626 3.265993 -1.531158 0.018625 2.449395 -1.148309 0.022154 -7.522339 -23.160239 18.502455 -8.754996 -6.873999 31.315584 4.457839 0.080177 2.142448 52.372238 21.502948 51.195027 -6.269452 -10.743916 125.260055 -54.543162 21.210966 45.435433 -10.788793 -2.189826 -8.421910 -58.266185 -2.092317 -44.178746 -26.726590 -39.054848 -88.885862 52.399920 23.444037 -32.382583 -4.143994 -9.925541 -2.287108 1.711886 -3.827065 -2.174026 0.183803 4.669935 -3.753527 0.032502 0.036894 0.021733 -4.331040 -9.310813 -0.751060 0.360307 -2.985512 1.716561 -0.107168 2.806214 -0.408246 -0.139270 -0.091488 -0.013306 
9.515357 7.584033 83.270424 -9.067175 -0.461328 -104.052201 7.372512 -3.458938 -0.015604 3.271905 -1.531362 0.010506 3.271904 -1.531363 0.010504 2.453808 -1.148506 0.016079 -7.511953 -23.158318 18.504842 -8.735679 -6.872632 31.322766 4.493219 0.009378 2.128881 52.467546 20.987074 50.561800 -6.361103 -10.815949 125.221464 -54.752135 21.538826 45.687129 -10.812207 -2.213066 -8.362787 -57.948746 -2.378007 -43.900781 -25.892771 -39.171220 -88.621609 52.301736 23.244367 -34.003400 -4.159015 -9.888760 -2.260037 1.720419 -3.876657 -2.127876 0.185721 4.656735 -3.714125 0.031369 0.035363 0.021496 -4.340829 -9.312417 -0.760135 0.362432 -3.007849 1.728186 -0.071560 2.815659 -0.341381 -0.131579 -0.085921 -0.013636 
9.496658 7.603977 83.270645 -9.085366 -0.485205 -104.131944 7.384295 -3.461469 -0.034055 3.276562 -1.532807 0.003778 3.276561 -1.532808 0.003778 2.457282 -1.149625 0.011052 -7.503642 -23.152355 18.505732 -8.719628 -6.863389 31.326734 4.548373 -0.104064 2.133619 52.506253 20.536282 49.984916 -6.407949 -10.933597 125.188461 -54.897133 21.883950 45.912528 -10.819641 -2.223496 -8.310719 -57.683830 -2.664333 -43.578690 -25.052593 -39.305662 -88.383631 52.185739 23.006287 -35.482922 -4.168306 -9.855295 -2.239654 1.725733 -3.925447 -2.080237 0.183832 4.645647 -3.703344 0.031398 0.034490 0.020107 -4.349039 -9.317558 -0.760662 0.362093 -3.024418 1.732880 -0.039278 2.823021 -0.286651 -0.121878 -0.080833 -0.013145 
9.482333 7.622148 83.270546 -9.103413 -0.509382 -104.211727 7.395514 -3.459867 -0.052576 3.281139 -1.531853 -0.003572 3.281136 -1.531853 -0.003573 2.460697 -1.148948 0.005545 -7.499397 -23.149562 18.507688 -8.711134 -6.859245 31.331478 4.598737 -0.239856 2.132812 52.530695 20.093564 49.461372 -6.485077 -10.979811 125.159337 -55.014763 22.164164 46.144167 -10.819492 -2.281116 -8.274601 -57.469492 -2.856647 -43.254813 -24.356487 -39.566193 -88.098136 52.146203 22.906458 -36.818268 -4.180547 -9.821987 -2.206598 1.732194 -3.979752 -2.042663 0.184453 4.639618 -3.693572 0.031705 0.034132 0.019009 -4.353561 -9.326513 -0.740303 0.356028 -3.039998 1.731584 -0.007101 2.834900 -0.242686 -0.111879 -0.077629 -0.012782 
9.470256 7.639640 83.269913 -9.122619 -0.532596 -104.295582 7.399621 -3.460306 -0.061770 3.282523 -1.532097 -0.006912 3.282524 -1.532096 -0.006914 2.461728 -1.149149 0.003044 -7.486235 -23.146919 18.502979 -8.688435 -6.856534 31.326639 4.662157 -0.311563 2.118668 52.565269 19.626251 48.928043 -6.615087 -10.909196 125.133970 -55.098299 22.400948 46.440877 -10.814188 -2.337397 -8.262569 -57.250512 -2.995003 -42.908334 -23.838110 -39.827024 -87.763655 52.106997 22.941752 -38.088171 -4.196547 -9.788958 -2.152509 1.745449 -4.037384 -2.020097 0.181188 4.638592 -3.666881 0.031856 0.032303 0.018675 -4.360078 -9.335229 -0.720710 0.350277 -3.061958 1.744161 0.023651 2.851294 -0.204251 -0.103675 -0.074282 -0.012837 
9.458189 7.658194 83.269196 -9.141227 -0.555198 -104.384060 7.398983 -3.451082 -0.062685 3.282434 -1.528451 -0.007116 3.282434 -1.528450 -0.007117 2.461664 -1.146415 0.002874 -7.461709 -23.152361 18.488733 -8.649410 -6.869999 31.307586 4.707362 -0.379156 2.086661 52.652658 19.161066 48.399380 -6.743343 -10.864501 125.123014 -55.205182 22.662685 46.717527 -10.810795 -2.401033 -8.251077 -57.015298 -3.167536 -42.546123 -23.311396 -39.980960 -87.470333 52.114589 22.948211 -39.424306 -4.217747 -9.750422 -2.082193 1.766258 -4.102442 -2.010177 0.173971 4.640317 -3.646014 0.032921 0.030794 0.018244 -4.371231 -9.341026 -0.709979 0.348819 -3.088394 1.776977 0.052157 2.869045 -0.170652 -0.097035 -0.070913 -0.013104 
9.447577 7.676739 83.269150 -9.162440 -0.577591 -104.467593 7.398668 -3.439963 -0.067455 3.282631 -1.523864 -0.008673 3.282629 -1.523863 -0.008673 2.461806 -1.142984 0.001682 -7.437308 -23.160176 18.468106 -8.612555 -6.887271 31.276956 4.763210 -0.462758 2.079331 52.737595 18.737864 47.893744 -6.828658 -10.927755 125.110433 -55.375349 22.977764 46.915524 -10.825507 -2.450704 -8.224606 -56.756037 -3.383994 -42.132490 -22.575307 -39.988388 -87.298608 52.137095 22.832796 -40.753871 -4.236106 -9.719744 -2.046503 1.777485 -4.161385 -1.971625 0.171342 4.639937 -3.618518 0.033864 0.029531 0.017011 -4.382942 -9.349191 -0.710392 0.346878 -3.115676 1.819573 0.080779 2.884225 -0.137544 -0.091521 -0.065735 -0.012869 
